<?xml version='1.0' encoding='UTF-8'?>
<!DOCTYPE svg PUBLIC "-//W3C//DTD SVG 20010904//EN" "http://www.w3.org/TR/2001/REC-SVG-20010904/DTD/svg10.dtd">
<svg xmlns="http://www.w3.org/2000/svg" version="1.0" width="600.000000pt" height="194.000000pt" viewBox="0 0 600.000000 194.000000" preserveAspectRatio="xMidYMid meet">
<g transform="translate(0.000000,194.000000) scale(0.066667,-0.066667)" fill="#f7ba00" stroke="none">
<path d="M923 2476 c-772 -196 -702 -1356 83 -1393 258 -13 561 136 530 259 -12 51 -22 49 -122 -27 -335 -255 -733 -70 -802 370 -88 571 527 936 825 489 85 -129 99 -125 105 27 l4 123 -132 66 c-184 92 -350 121 -491 86z"/>
<path d="M4086 2401 c-13 -13 -5 -285 9 -293 42 -26 105 37 105 106 l0 68 304 -5 c298 -5 305 -6 389 -47 365 -181 433 -710 127 -977 -135 -119 -180 -128 -626 -128 l-389 0 0 350 0 350 191 98 192 99 187 -100 188 -100 3 -236 3 -236 -277 0 -277 0 10 245 c10 268 7 280 -67 234 l-48 -29 0 -277 0 -278 383 0 382 0 2 293 c1 160 2 306 3 324 2 34 -3 38 -295 190 -211 111 -194 109 -338 29 -63 -36 -167 -91 -230 -124 l-116 -59 -4 -440 c-3 -243 -2 -443 2 -447 26 -26 875 -4 970 25 614 190 629 1099 21 1335 -49 19 -787 47 -804 30z"/>
<path d="M3281 2069 c-77 -19 -175 -69 -225 -116 -48 -45 -47 -45 -65 42 l-13 67 -105 0 c-63 0 -104 -6 -102 -14 2 -9 14 -46 27 -82 36 -101 27 -726 -12 -785 -44 -67 -36 -71 124 -71 83 0 150 2 150 4 0 3 -13 31 -30 63 -39 77 -45 550 -8 621 80 156 380 201 442 66 26 -58 21 -649 -7 -686 -45 -59 -30 -68 110 -68 150 0 163 6 130 56 -19 28 -25 102 -31 368 -9 387 -9 384 -60 445 -71 85 -202 121 -325 90z"/>
<path d="M5921 2070 c-217 -55 -367 -227 -383 -439 -40 -555 718 -732 954 -221 164 354 -184 756 -571 660z m224 -143 c261 -153 270 -630 14 -699 -367 -98 -628 563 -286 725 77 37 182 27 272 -26z"/>
<path d="M7145 2069 c-446 -88 -535 -702 -130 -907 122 -62 332 -65 446 -7 423 216 345 833 -116 913 -105 19 -111 19 -200 1z m191 -134 c185 -95 285 -394 193 -574 -165 -320 -622 -59 -595 339 16 228 202 336 402 235z"/>
<path d="M8505 2069 c-69 -11 -188 -65 -249 -112 -63 -48 -62 -48 -74 30 -9 61 -15 68 -57 75 -68 11 -168 1 -164 -15 2 -8 14 -45 27 -82 36 -101 27 -740 -12 -799 -37 -57 -40 -56 117 -56 153 0 153 0 120 80 -30 70 -33 553 -4 609 50 99 237 141 373 84 24 -9 58 88 58 164 0 24 -64 35 -135 22z"/>
<path d="M1863 2039 c-103 -33 -112 -46 -131 -169 -12 -82 -5 -85 63 -25 95 84 166 110 313 117 175 8 217 -18 217 -133 0 -97 -24 -112 -233 -142 -294 -42 -405 -128 -404 -313 0 -216 203 -331 430 -244 66 25 192 142 192 177 0 7 7 13 15 13 8 0 15 -26 15 -58 0 -32 4 -79 9 -105 l10 -47 112 0 111 0 -35 56 c-33 55 -35 69 -38 409 -4 396 -5 400 -117 458 -89 45 -397 49 -529 6z m471 -460 c-21 -145 -55 -228 -119 -283 -152 -129 -340 -87 -340 76 0 123 71 183 255 219 54 10 114 27 135 38 69 36 79 28 69 -50z" fill="#000000"/>
</g>
<g fill="#000000" stroke="none"><path d="M1235 774 c-61 -28 -95 -93 -95 -185 0 -126 87 -195 220 -175 73 11 74 11 86 115 l8 71 -58 0 c-62 0 -92 -21 -52 -36 37 -14 22 -105 -19 -111 -57 -8 -95 51 -95 150 0 136 82 195 148 106 l30 -41 14 37 c28 72 -87 114 -187 69z"/>
<path d="M1607 783 c-12 -4 -12 -14 0 -36 10 -19 14 -91 10 -187 l-5 -155 115 0 c123 0 123 0 139 64 11 46 -24 59 -48 17 -7 -13 -35 -25 -64 -26 l-51 -2 0 120 c0 66 3 139 7 164 7 43 -40 62 -103 41z"/>
<path d="M2551 776 c-91 -47 -79 -126 29 -193 82 -50 102 -107 46 -125 -37 -12 -91 15 -91 45 0 12 -10 22 -22 22 -42 0 -29 -88 15 -105 173 -66 299 139 129 209 -58 24 -98 69 -87 98 13 32 60 29 93 -7 37 -41 52 -38 52 13 0 36 -7 45 -47 53 -64 12 -75 11 -117 -10z"/>
<path d="M2935 764 c-74 -58 -30 -166 79 -201 40 -13 55 -66 26 -94 -29 -30 -95 -14 -108 26 -12 39 -32 38 -45 -2 -24 -75 145 -116 216 -52 58 52 19 189 -53 189 -41 0 -95 62 -79 91 20 38 67 37 94 -3 26 -35 55 -26 55 18 0 60 -122 78 -185 28z"/>
<path d="M3619 775 c-4 -7 0 -20 9 -29 10 -10 17 -71 17 -146 0 -75 -7 -136 -17 -146 -26 -26 -4 -44 53 -46 51 -2 93 27 57 39 -39 13 -21 108 20 108 151 0 219 186 78 217 -63 13 -209 16 -217 3z m177 -41 c60 -32 28 -134 -41 -134 -31 0 -35 7 -35 65 0 87 16 102 76 69z"/>
<path d="M6109 784 c-49 -6 -63 -24 -34 -41 21 -13 19 -268 -2 -289 -27 -27 -3 -44 58 -42 41 2 55 9 49 24 -16 50 -16 287 0 307 17 20 9 54 -12 50 -6 -2 -32 -6 -59 -9z"/>
<path d="M6436 776 c-181 -93 -103 -402 94 -365 162 30 189 285 39 362 -52 27 -85 27 -133 3z m118 -66 c53 -67 36 -232 -26 -252 -67 -21 -109 35 -110 144 -1 132 72 190 136 108z"/>
<path d="M7046 677 l6 -114 -30 37 c-17 21 -49 69 -72 108 -39 66 -47 71 -102 72 -46 0 -55 -4 -41 -18 22 -22 25 -306 3 -320 -26 -16 0 -37 46 -37 45 0 58 25 28 55 -9 9 -14 60 -11 119 l5 104 90 -135 c115 -170 119 -169 123 22 4 141 7 170 22 205 3 5 -13 11 -34 13 l-39 4 6 -115z"/>
<path d="M7314 763 c-67 -52 -50 -113 47 -177 80 -53 97 -88 57 -121 -31 -25 -99 -6 -109 31 -11 41 -32 36 -43 -10 -14 -53 11 -71 97 -72 164 -3 207 142 64 215 -78 40 -101 69 -77 99 25 30 54 28 90 -8 40 -40 45 -38 45 13 0 36 -7 45 -47 53 -70 14 -80 12 -124 -23z"/>
<path d="M2136 724 c-72 -180 -103 -246 -121 -261 -11 -9 -20 -26 -20 -38 0 -30 82 -20 85 10 1 12 2 34 3 49 2 21 16 26 68 26 68 0 84 -15 84 -76 0 -23 11 -29 52 -29 59 0 79 21 49 51 -17 17 -76 146 -132 290 -19 49 -42 42 -68 -22z m54 -149 c0 -11 -16 -20 -36 -20 -34 0 -35 3 -19 46 17 46 55 28 55 -26z"/>
<path d="M4154 724 c-24 -76 -119 -265 -136 -272 -32 -12 -9 -42 32 -42 40 0 45 5 45 43 0 44 9 51 78 63 45 8 67 -11 74 -65 5 -31 14 -38 55 -39 58 -1 74 15 44 44 -12 12 -47 89 -80 172 -64 164 -84 182 -112 96z m41 -124 c17 -43 16 -45 -26 -45 -41 0 -42 2 -27 45 9 25 21 45 26 45 6 0 18 -20 27 -45z"/>
<path d="M4508 754 c21 -47 27 -273 7 -296 -26 -31 -10 -46 47 -44 40 2 50 8 48 30 -2 16 -5 49 -8 74 -7 69 29 55 75 -30 29 -55 50 -76 75 -77 48 -3 56 21 21 59 -62 68 -67 95 -26 136 46 46 49 97 7 141 -41 45 -265 51 -246 7z m178 -28 c46 -45 13 -126 -51 -126 -31 0 -41 29 -32 101 6 55 43 66 83 25z"/>
<path d="M4931 742 c-8 -45 17 -67 37 -32 7 14 27 25 43 25 35 0 45 -263 11 -297 -21 -21 -22 -20 52 -25 60 -5 83 12 59 41 -8 10 -16 78 -17 150 -3 141 13 164 77 106 26 -23 27 -22 27 23 l0 47 -141 0 c-138 0 -141 -1 -148 -38z"/>
<path d="M5379 754 c21 -45 25 -273 6 -297 -27 -31 -5 -51 54 -49 54 2 78 18 51 34 -20 13 -20 288 0 301 34 21 11 37 -54 37 -61 0 -68 -3 -57 -26z"/>
<path d="M5640 735 c0 -47 21 -61 35 -22 5 12 23 22 40 22 34 0 48 -272 15 -293 -30 -18 3 -37 55 -30 64 7 76 18 53 41 -11 11 -18 68 -18 150 0 142 15 163 78 107 26 -23 27 -22 27 23 l0 47 -142 0 -143 0 0 -45z"/>
</g></svg>